<mxfile host="app.diagrams.net" modified="2022-12-27T13:12:06.108Z" agent="5.0 (Windows)" etag="4A0i2puu_sWrCA42Gv-u" version="20.7.4" type="github">
  <diagram id="BitdrmAzLBek2wub3kfk" name="Halaman-1">
    <mxGraphModel dx="1050" dy="530" grid="1" gridSize="10" guides="1" tooltips="1" connect="1" arrows="1" fold="1" page="1" pageScale="1" pageWidth="827" pageHeight="1169" math="0" shadow="0">
      <root>
        <mxCell id="0" />
        <mxCell id="1" parent="0" />
        <mxCell id="zVgbBHhAnfoZuHZFXp2f-1" value="" style="rhombus;whiteSpace=wrap;html=1;" vertex="1" parent="1">
          <mxGeometry x="180" y="110" width="80" height="80" as="geometry" />
        </mxCell>
      </root>
    </mxGraphModel>
  </diagram>
</mxfile>
